<svg width="48" height="45" fill="none" xmlns="http://www.w3.org/2000/svg"><g clip-path="url(#clip0)" fill="#0D5C63"><path d="M23.84 20.802c4.305 0 7.652-3.495 7.652-7.785s-3.507-7.626-7.81-7.626c-4.305 0-7.653 3.495-7.653 7.626 0 4.29 3.507 7.785 7.812 7.785zM23.682 8.57c.16 0 .16 0 0 0 2.55 0 4.623 2.065 4.623 4.607 0 2.542-2.072 4.449-4.623 4.449a4.448 4.448 0 01-4.463-4.449c0-2.542 2.072-4.607 4.463-4.607zm23.752 11.279c-3.029-2.701-7.014-4.131-11.159-3.972H35c-.32 1.27-.797 2.383-1.435 3.336.956-.159 1.754-.159 2.71-.159 3.029-.158 6.058.795 8.449 2.543v11.439h3.188v-12.71l-.478-.477zM32.608 5.708c.798-1.906 3.03-2.86 5.102-2.065 1.913.794 2.87 3.019 2.072 5.084-.638 1.43-2.072 2.383-3.507 2.383-.319 0-.797 0-1.116-.159.16.795.16 1.59.16 2.225v.953c.318 0 .637.159.956.159 3.985 0 7.174-3.178 7.174-6.99 0-3.973-3.189-7.15-7.015-7.15-2.55 0-4.782 1.27-6.057 3.495.797.476 1.594 1.112 2.231 2.065zM14.435 19.372c-.638-.953-1.116-2.065-1.434-3.336h-1.276A16.438 16.438 0 00.566 19.849l-.478.477v12.71h3.188v-11.44c2.55-1.747 5.42-2.7 8.45-2.541.956 0 1.912.158 2.71.317zm-2.71-5.242c.319 0 .638 0 .957-.16v-.953c0-.794 0-1.588.16-2.224-.32.159-.798.159-1.117.159-2.072 0-3.826-1.748-3.826-3.813 0-2.066 1.754-3.813 3.826-3.813 1.594 0 3.029.953 3.667 2.383.637-.795 1.594-1.589 2.39-2.224C15.71.148 11.407-.965 8.06 1.1c-3.35 2.067-4.465 6.357-2.393 9.693 1.276 2.066 3.508 3.337 6.058 3.337zm25.188 15.252l-.32-.477c-3.188-3.495-7.651-5.56-12.434-5.402-4.782-.159-9.405 1.907-12.593 5.402l-.32.477v12.075c0 1.43 1.117 2.7 2.711 2.7h20.405c1.435 0 2.71-1.27 2.71-2.7V29.382h-.16zM33.724 40.98H14.435V30.494c2.55-2.542 6.058-3.813 9.725-3.813 3.507-.16 7.014 1.27 9.564 3.813V40.98z"/></g><defs><clipPath id="clip0"><path fill="#fff" d="M0 0h48v44.211H0z"/></clipPath></defs></svg>